<svg xmlns="http://www.w3.org/2000/svg" viewBox="0 0 400 300">
  <defs>
    <linearGradient id="bgGrad" x1="0%" y1="0%" x2="100%" y2="100%">
      <stop offset="0%" style="stop-color:#f8f9fa"/>
      <stop offset="100%" style="stop-color:#e9ecef"/>
    </linearGradient>
  </defs>
  
  <!-- Background -->
  <rect width="400" height="300" fill="url(#bgGrad)"/>
  
  <!-- Header Bar -->
  <rect x="20" y="20" width="360" height="30" rx="4" fill="#ffffff" stroke="#dee2e6" stroke-width="1"/>
  <rect x="30" y="30" width="60" height="10" rx="2" fill="#495057"/>
  <rect x="320" y="30" width="50" height="10" rx="2" fill="#ced4da"/>
  
  <!-- Product Grid - Row 1 -->
  <rect x="20" y="60" width="115" height="100" rx="4" fill="#ffffff" stroke="#dee2e6" stroke-width="1"/>
  <rect x="30" y="70" width="95" height="50" rx="2" fill="#e9ecef"/>
  <rect x="30" y="125" width="70" height="8" rx="1" fill="#495057"/>
  <rect x="30" y="138" width="40" height="8" rx="1" fill="#28a745"/>
  
  <rect x="142" y="60" width="115" height="100" rx="4" fill="#ffffff" stroke="#dee2e6" stroke-width="1"/>
  <rect x="152" y="70" width="95" height="50" rx="2" fill="#e9ecef"/>
  <rect x="152" y="125" width="70" height="8" rx="1" fill="#495057"/>
  <rect x="152" y="138" width="40" height="8" rx="1" fill="#28a745"/>
  
  <rect x="265" y="60" width="115" height="100" rx="4" fill="#ffffff" stroke="#dee2e6" stroke-width="1"/>
  <rect x="275" y="70" width="95" height="50" rx="2" fill="#e9ecef"/>
  <rect x="275" y="125" width="70" height="8" rx="1" fill="#495057"/>
  <rect x="275" y="138" width="40" height="8" rx="1" fill="#28a745"/>
  
  <!-- Product Grid - Row 2 -->
  <rect x="20" y="170" width="115" height="100" rx="4" fill="#ffffff" stroke="#dee2e6" stroke-width="1"/>
  <rect x="30" y="180" width="95" height="50" rx="2" fill="#e9ecef"/>
  <rect x="30" y="235" width="70" height="8" rx="1" fill="#495057"/>
  <rect x="30" y="248" width="40" height="8" rx="1" fill="#28a745"/>
  
  <rect x="142" y="170" width="115" height="100" rx="4" fill="#ffffff" stroke="#dee2e6" stroke-width="1"/>
  <rect x="152" y="180" width="95" height="50" rx="2" fill="#e9ecef"/>
  <rect x="152" y="235" width="70" height="8" rx="1" fill="#495057"/>
  <rect x="152" y="248" width="40" height="8" rx="1" fill="#28a745"/>
  
  <rect x="265" y="170" width="115" height="100" rx="4" fill="#ffffff" stroke="#dee2e6" stroke-width="1"/>
  <rect x="275" y="180" width="95" height="50" rx="2" fill="#e9ecef"/>
  <rect x="275" y="235" width="70" height="8" rx="1" fill="#495057"/>
  <rect x="275" y="248" width="40" height="8" rx="1" fill="#28a745"/>
  
  <!-- Label -->
  <text x="200" y="295" font-family="Arial, sans-serif" font-size="11" fill="#6c757d" text-anchor="middle">Grid Layout</text>
</svg>
