<svg xmlns="http://www.w3.org/2000/svg" viewBox="0 0 400 300">
  <defs>
    <linearGradient id="bgGrad" x1="0%" y1="0%" x2="100%" y2="100%">
      <stop offset="0%" style="stop-color:#f8f9fa"/>
      <stop offset="100%" style="stop-color:#e9ecef"/>
    </linearGradient>
  </defs>
  
  <!-- Background -->
  <rect width="400" height="300" fill="url(#bgGrad)"/>
  
  <!-- Header with Title -->
  <rect x="20" y="15" width="360" height="35" rx="4" fill="#ffffff" stroke="#dee2e6" stroke-width="1"/>
  <rect x="30" y="25" width="100" height="14" rx="2" fill="#343a40"/>
  <rect x="300" y="28" width="70" height="10" rx="1" fill="#6c757d"/>
  
  <!-- Two Column Layout -->
  <!-- Left Sidebar (25%) -->
  <rect x="20" y="60" width="85" height="220" rx="4" fill="#ffffff" stroke="#dee2e6" stroke-width="1"/>
  
  <!-- Categories Filter -->
  <rect x="28" y="70" width="60" height="10" rx="1" fill="#495057"/>
  <rect x="28" y="85" width="50" height="6" rx="1" fill="#ced4da"/>
  <rect x="28" y="95" width="55" height="6" rx="1" fill="#ced4da"/>
  <rect x="28" y="105" width="45" height="6" rx="1" fill="#ced4da"/>
  <rect x="28" y="115" width="52" height="6" rx="1" fill="#ced4da"/>
  
  <!-- Price Filter -->
  <rect x="28" y="135" width="50" height="10" rx="1" fill="#495057"/>
  <rect x="28" y="150" width="70" height="15" rx="2" fill="#e9ecef"/>
  
  <!-- Attributes Filter -->
  <rect x="28" y="175" width="55" height="10" rx="1" fill="#495057"/>
  <rect x="28" y="190" width="65" height="6" rx="1" fill="#ced4da"/>
  <rect x="28" y="200" width="60" height="6" rx="1" fill="#ced4da"/>
  <rect x="28" y="210" width="55" height="6" rx="1" fill="#ced4da"/>
  
  <!-- Status Filter -->
  <rect x="28" y="230" width="50" height="10" rx="1" fill="#495057"/>
  <rect x="28" y="245" width="60" height="6" rx="1" fill="#ced4da"/>
  <rect x="28" y="255" width="50" height="6" rx="1" fill="#ced4da"/>
  
  <!-- Right Content (75%) -->
  <!-- Toolbar -->
  <rect x="115" y="60" width="265" height="25" rx="4" fill="#ffffff" stroke="#dee2e6" stroke-width="1"/>
  <rect x="125" y="68" width="60" height="10" rx="1" fill="#ced4da"/>
  <rect x="340" y="65" width="30" height="15" rx="2" fill="#e9ecef"/>
  
  <!-- Product Grid 3 columns -->
  <!-- Row 1 -->
  <rect x="115" y="95" width="82" height="85" rx="3" fill="#ffffff" stroke="#dee2e6" stroke-width="1"/>
  <rect x="120" y="100" width="72" height="45" rx="2" fill="#e9ecef"/>
  <rect x="120" y="150" width="50" height="8" rx="1" fill="#495057"/>
  <rect x="120" y="162" width="35" height="8" rx="1" fill="#28a745"/>
  
  <rect x="203" y="95" width="82" height="85" rx="3" fill="#ffffff" stroke="#dee2e6" stroke-width="1"/>
  <rect x="208" y="100" width="72" height="45" rx="2" fill="#e9ecef"/>
  <rect x="208" y="150" width="50" height="8" rx="1" fill="#495057"/>
  <rect x="208" y="162" width="35" height="8" rx="1" fill="#28a745"/>
  
  <rect x="291" y="95" width="82" height="85" rx="3" fill="#ffffff" stroke="#dee2e6" stroke-width="1"/>
  <rect x="296" y="100" width="72" height="45" rx="2" fill="#e9ecef"/>
  <rect x="296" y="150" width="50" height="8" rx="1" fill="#495057"/>
  <rect x="296" y="162" width="35" height="8" rx="1" fill="#28a745"/>
  
  <!-- Row 2 -->
  <rect x="115" y="190" width="82" height="85" rx="3" fill="#ffffff" stroke="#dee2e6" stroke-width="1"/>
  <rect x="120" y="195" width="72" height="45" rx="2" fill="#e9ecef"/>
  <rect x="120" y="245" width="50" height="8" rx="1" fill="#495057"/>
  <rect x="120" y="257" width="35" height="8" rx="1" fill="#28a745"/>
  
  <rect x="203" y="190" width="82" height="85" rx="3" fill="#ffffff" stroke="#dee2e6" stroke-width="1"/>
  <rect x="208" y="195" width="72" height="45" rx="2" fill="#e9ecef"/>
  <rect x="208" y="245" width="50" height="8" rx="1" fill="#495057"/>
  <rect x="208" y="257" width="35" height="8" rx="1" fill="#28a745"/>
  
  <rect x="291" y="190" width="82" height="85" rx="3" fill="#ffffff" stroke="#dee2e6" stroke-width="1"/>
  <rect x="296" y="195" width="72" height="45" rx="2" fill="#e9ecef"/>
  <rect x="296" y="245" width="50" height="8" rx="1" fill="#495057"/>
  <rect x="296" y="257" width="35" height="8" rx="1" fill="#28a745"/>
  
  <!-- Label -->
  <text x="200" y="295" font-family="Arial, sans-serif" font-size="11" fill="#6c757d" text-anchor="middle">Standard Archive Layout</text>
</svg>
