<svg xmlns="http://www.w3.org/2000/svg" viewBox="0 0 400 300">
  <defs>
    <linearGradient id="bgGrad" x1="0%" y1="0%" x2="100%" y2="100%">
      <stop offset="0%" style="stop-color:#f8f9fa"/>
      <stop offset="100%" style="stop-color:#e9ecef"/>
    </linearGradient>
  </defs>
  
  <!-- Background -->
  <rect width="400" height="300" fill="url(#bgGrad)"/>
  
  <!-- Sidebar -->
  <rect x="20" y="20" width="90" height="260" rx="4" fill="#ffffff" stroke="#dee2e6" stroke-width="1"/>
  <rect x="30" y="35" width="60" height="10" rx="2" fill="#495057"/>
  <rect x="30" y="55" width="70" height="6" rx="1" fill="#ced4da"/>
  <rect x="30" y="67" width="65" height="6" rx="1" fill="#ced4da"/>
  <rect x="30" y="79" width="55" height="6" rx="1" fill="#ced4da"/>
  <rect x="30" y="100" width="60" height="10" rx="2" fill="#495057"/>
  <rect x="30" y="120" width="70" height="6" rx="1" fill="#ced4da"/>
  <rect x="30" y="132" width="65" height="6" rx="1" fill="#ced4da"/>
  <rect x="30" y="160" width="60" height="10" rx="2" fill="#495057"/>
  <rect x="30" y="180" width="70" height="20" rx="2" fill="#e9ecef"/>
  <rect x="30" y="210" width="70" height="25" rx="3" fill="#007bff"/>
  
  <!-- Header Bar -->
  <rect x="120" y="20" width="260" height="30" rx="4" fill="#ffffff" stroke="#dee2e6" stroke-width="1"/>
  <rect x="130" y="30" width="60" height="10" rx="2" fill="#495057"/>
  <rect x="320" y="30" width="50" height="10" rx="2" fill="#ced4da"/>
  
  <!-- Product Grid - Row 1 -->
  <rect x="120" y="60" width="125" height="100" rx="4" fill="#ffffff" stroke="#dee2e6" stroke-width="1"/>
  <rect x="130" y="70" width="105" height="50" rx="2" fill="#e9ecef"/>
  <rect x="130" y="125" width="70" height="8" rx="1" fill="#495057"/>
  <rect x="130" y="138" width="40" height="8" rx="1" fill="#28a745"/>
  
  <rect x="255" y="60" width="125" height="100" rx="4" fill="#ffffff" stroke="#dee2e6" stroke-width="1"/>
  <rect x="265" y="70" width="105" height="50" rx="2" fill="#e9ecef"/>
  <rect x="265" y="125" width="70" height="8" rx="1" fill="#495057"/>
  <rect x="265" y="138" width="40" height="8" rx="1" fill="#28a745"/>
  
  <!-- Product Grid - Row 2 -->
  <rect x="120" y="170" width="125" height="100" rx="4" fill="#ffffff" stroke="#dee2e6" stroke-width="1"/>
  <rect x="130" y="180" width="105" height="50" rx="2" fill="#e9ecef"/>
  <rect x="130" y="235" width="70" height="8" rx="1" fill="#495057"/>
  <rect x="130" y="248" width="40" height="8" rx="1" fill="#28a745"/>
  
  <rect x="255" y="170" width="125" height="100" rx="4" fill="#ffffff" stroke="#dee2e6" stroke-width="1"/>
  <rect x="265" y="180" width="105" height="50" rx="2" fill="#e9ecef"/>
  <rect x="265" y="235" width="70" height="8" rx="1" fill="#495057"/>
  <rect x="265" y="248" width="40" height="8" rx="1" fill="#28a745"/>
  
  <!-- Label -->
  <text x="200" y="295" font-family="Arial, sans-serif" font-size="11" fill="#6c757d" text-anchor="middle">With Sidebar</text>
</svg>
