<svg xmlns="http://www.w3.org/2000/svg" viewBox="0 0 400 300">
  <defs>
    <linearGradient id="bgGrad" x1="0%" y1="0%" x2="100%" y2="100%">
      <stop offset="0%" style="stop-color:#f8f9fa"/>
      <stop offset="100%" style="stop-color:#e9ecef"/>
    </linearGradient>
  </defs>
  
  <!-- Background -->
  <rect width="400" height="300" fill="url(#bgGrad)"/>
  
  <!-- Header Row -->
  <rect x="20" y="15" width="360" height="40" rx="4" fill="#ffffff" stroke="#dee2e6" stroke-width="1"/>
  <rect x="30" y="25" width="120" height="16" rx="2" fill="#212529"/>
  <rect x="280" y="28" width="45" height="10" rx="1" fill="#6c757d"/>
  <rect x="335" y="25" width="35" height="16" rx="2" fill="#e9ecef"/>
  
  <!-- Filter Bar -->
  <rect x="20" y="65" width="360" height="30" rx="4" fill="#ffffff" stroke="#dee2e6" stroke-width="1"/>
  <rect x="30" y="73" width="55" height="14" rx="2" fill="#007bff"/>
  <rect x="95" y="73" width="55" height="14" rx="2" fill="#e9ecef"/>
  <rect x="160" y="73" width="55" height="14" rx="2" fill="#e9ecef"/>
  <rect x="225" y="73" width="55" height="14" rx="2" fill="#e9ecef"/>
  
  <!-- Active Filters -->
  <rect x="30" y="100" width="50" height="12" rx="6" fill="#e9ecef"/>
  <rect x="85" y="100" width="65" height="12" rx="6" fill="#e9ecef"/>
  
  <!-- Product Grid 4 columns -->
  <!-- Row 1 -->
  <rect x="20" y="120" width="85" height="75" rx="3" fill="#ffffff" stroke="#dee2e6" stroke-width="1"/>
  <rect x="25" y="125" width="75" height="40" rx="2" fill="#e9ecef"/>
  <rect x="25" y="170" width="50" height="6" rx="1" fill="#495057"/>
  <rect x="25" y="180" width="30" height="8" rx="1" fill="#111"/>
  
  <rect x="112" y="120" width="85" height="75" rx="3" fill="#ffffff" stroke="#dee2e6" stroke-width="1"/>
  <rect x="117" y="125" width="75" height="40" rx="2" fill="#e9ecef"/>
  <rect x="117" y="170" width="50" height="6" rx="1" fill="#495057"/>
  <rect x="117" y="180" width="30" height="8" rx="1" fill="#111"/>
  
  <rect x="204" y="120" width="85" height="75" rx="3" fill="#ffffff" stroke="#dee2e6" stroke-width="1"/>
  <rect x="209" y="125" width="75" height="40" rx="2" fill="#e9ecef"/>
  <rect x="209" y="170" width="50" height="6" rx="1" fill="#495057"/>
  <rect x="209" y="180" width="30" height="8" rx="1" fill="#111"/>
  
  <rect x="296" y="120" width="85" height="75" rx="3" fill="#ffffff" stroke="#dee2e6" stroke-width="1"/>
  <rect x="301" y="125" width="75" height="40" rx="2" fill="#e9ecef"/>
  <rect x="301" y="170" width="50" height="6" rx="1" fill="#495057"/>
  <rect x="301" y="180" width="30" height="8" rx="1" fill="#111"/>
  
  <!-- Row 2 -->
  <rect x="20" y="203" width="85" height="75" rx="3" fill="#ffffff" stroke="#dee2e6" stroke-width="1"/>
  <rect x="25" y="208" width="75" height="40" rx="2" fill="#e9ecef"/>
  <rect x="25" y="253" width="50" height="6" rx="1" fill="#495057"/>
  <rect x="25" y="263" width="30" height="8" rx="1" fill="#111"/>
  
  <rect x="112" y="203" width="85" height="75" rx="3" fill="#ffffff" stroke="#dee2e6" stroke-width="1"/>
  <rect x="117" y="208" width="75" height="40" rx="2" fill="#e9ecef"/>
  <rect x="117" y="253" width="50" height="6" rx="1" fill="#495057"/>
  <rect x="117" y="263" width="30" height="8" rx="1" fill="#111"/>
  
  <rect x="204" y="203" width="85" height="75" rx="3" fill="#ffffff" stroke="#dee2e6" stroke-width="1"/>
  <rect x="209" y="208" width="75" height="40" rx="2" fill="#e9ecef"/>
  <rect x="209" y="253" width="50" height="6" rx="1" fill="#495057"/>
  <rect x="209" y="263" width="30" height="8" rx="1" fill="#111"/>
  
  <rect x="296" y="203" width="85" height="75" rx="3" fill="#ffffff" stroke="#dee2e6" stroke-width="1"/>
  <rect x="301" y="208" width="75" height="40" rx="2" fill="#e9ecef"/>
  <rect x="301" y="253" width="50" height="6" rx="1" fill="#495057"/>
  <rect x="301" y="263" width="30" height="8" rx="1" fill="#111"/>
  
  <!-- Label -->
  <text x="200" y="295" font-family="Arial, sans-serif" font-size="11" fill="#6c757d" text-anchor="middle">Modern Archive Layout</text>
</svg>
