<svg xmlns="http://www.w3.org/2000/svg" viewBox="0 0 400 300">
  <defs>
    <linearGradient id="bgGrad" x1="0%" y1="0%" x2="100%" y2="100%">
      <stop offset="0%" style="stop-color:#f8f9fa"/>
      <stop offset="100%" style="stop-color:#e9ecef"/>
    </linearGradient>
  </defs>
  
  <!-- Background -->
  <rect width="400" height="300" fill="url(#bgGrad)"/>
  
  <!-- Header Bar -->
  <rect x="20" y="20" width="360" height="30" rx="4" fill="#ffffff" stroke="#dee2e6" stroke-width="1"/>
  <rect x="30" y="30" width="60" height="10" rx="2" fill="#495057"/>
  <rect x="320" y="30" width="50" height="10" rx="2" fill="#ced4da"/>
  
  <!-- Masonry Grid - Column 1 -->
  <rect x="20" y="60" width="115" height="130" rx="4" fill="#ffffff" stroke="#dee2e6" stroke-width="1"/>
  <rect x="30" y="70" width="95" height="80" rx="2" fill="#e9ecef"/>
  <rect x="30" y="155" width="70" height="8" rx="1" fill="#495057"/>
  <rect x="30" y="168" width="40" height="8" rx="1" fill="#28a745"/>
  
  <rect x="20" y="200" width="115" height="90" rx="4" fill="#ffffff" stroke="#dee2e6" stroke-width="1"/>
  <rect x="30" y="210" width="95" height="45" rx="2" fill="#e9ecef"/>
  <rect x="30" y="260" width="70" height="8" rx="1" fill="#495057"/>
  <rect x="30" y="273" width="40" height="8" rx="1" fill="#28a745"/>
  
  <!-- Masonry Grid - Column 2 -->
  <rect x="142" y="60" width="115" height="90" rx="4" fill="#ffffff" stroke="#dee2e6" stroke-width="1"/>
  <rect x="152" y="70" width="95" height="45" rx="2" fill="#e9ecef"/>
  <rect x="152" y="120" width="70" height="8" rx="1" fill="#495057"/>
  <rect x="152" y="133" width="40" height="8" rx="1" fill="#28a745"/>
  
  <rect x="142" y="160" width="115" height="130" rx="4" fill="#ffffff" stroke="#dee2e6" stroke-width="1"/>
  <rect x="152" y="170" width="95" height="75" rx="2" fill="#e9ecef"/>
  <rect x="152" y="250" width="70" height="8" rx="1" fill="#495057"/>
  <rect x="152" y="263" width="40" height="8" rx="1" fill="#28a745"/>
  
  <!-- Masonry Grid - Column 3 -->
  <rect x="265" y="60" width="115" height="110" rx="4" fill="#ffffff" stroke="#dee2e6" stroke-width="1"/>
  <rect x="275" y="70" width="95" height="60" rx="2" fill="#e9ecef"/>
  <rect x="275" y="135" width="70" height="8" rx="1" fill="#495057"/>
  <rect x="275" y="148" width="40" height="8" rx="1" fill="#28a745"/>
  
  <rect x="265" y="180" width="115" height="110" rx="4" fill="#ffffff" stroke="#dee2e6" stroke-width="1"/>
  <rect x="275" y="190" width="95" height="60" rx="2" fill="#e9ecef"/>
  <rect x="275" y="255" width="70" height="8" rx="1" fill="#495057"/>
  <rect x="275" y="268" width="40" height="8" rx="1" fill="#28a745"/>
  
  <!-- Label -->
  <text x="200" y="295" font-family="Arial, sans-serif" font-size="11" fill="#6c757d" text-anchor="middle">Masonry Grid</text>
</svg>
