<svg xmlns="http://www.w3.org/2000/svg" viewBox="0 0 400 300">
  <defs>
    <linearGradient id="bgGrad" x1="0%" y1="0%" x2="100%" y2="100%">
      <stop offset="0%" style="stop-color:#f5f5f5"/>
      <stop offset="100%" style="stop-color:#ebebeb"/>
    </linearGradient>
  </defs>
  
  <!-- Background -->
  <rect width="400" height="300" fill="url(#bgGrad)"/>
  
  <!-- Title -->
  <rect x="20" y="12" width="100" height="16" rx="2" fill="#212529"/>
  
  <!-- Left: Cart Items - Scrollable (65%) -->
  <rect x="20" y="35" width="230" height="210" rx="6" fill="#ffffff" stroke="#dee2e6" stroke-width="1"/>
  
  <!-- Cart Item 1 -->
  <rect x="30" y="45" width="210" height="60" rx="4" fill="#f8f9fa"/>
  <rect x="38" y="53" width="44" height="44" rx="4" fill="#e9ecef"/>
  <rect x="90" y="56" width="90" height="10" rx="1" fill="#343a40"/>
  <rect x="90" y="70" width="50" height="8" rx="1" fill="#868e96"/>
  <rect x="90" y="86" width="35" height="10" rx="2" fill="#28a745"/>
  <rect x="200" y="60" width="30" height="25" rx="3" fill="#fff" stroke="#ced4da" stroke-width="1"/>
  
  <!-- Cart Item 2 -->
  <rect x="30" y="112" width="210" height="60" rx="4" fill="#f8f9fa"/>
  <rect x="38" y="120" width="44" height="44" rx="4" fill="#e9ecef"/>
  <rect x="90" y="123" width="90" height="10" rx="1" fill="#343a40"/>
  <rect x="90" y="137" width="50" height="8" rx="1" fill="#868e96"/>
  <rect x="90" y="153" width="35" height="10" rx="2" fill="#28a745"/>
  <rect x="200" y="127" width="30" height="25" rx="3" fill="#fff" stroke="#ced4da" stroke-width="1"/>
  
  <!-- Cart Item 3 -->
  <rect x="30" y="179" width="210" height="60" rx="4" fill="#f8f9fa"/>
  <rect x="38" y="187" width="44" height="44" rx="4" fill="#e9ecef"/>
  <rect x="90" y="190" width="90" height="10" rx="1" fill="#343a40"/>
  <rect x="90" y="204" width="50" height="8" rx="1" fill="#868e96"/>
  <rect x="90" y="220" width="35" height="10" rx="2" fill="#28a745"/>
  <rect x="200" y="194" width="30" height="25" rx="3" fill="#fff" stroke="#ced4da" stroke-width="1"/>
  
  <!-- Right: Sticky Summary (35%) -->
  <rect x="260" y="35" width="120" height="210" rx="6" fill="#ffffff" stroke="#007bff" stroke-width="2"/>
  
  <!-- Sticky indicator -->
  <rect x="260" y="35" width="120" height="25" rx="6" fill="#007bff"/>
  <rect x="270" y="43" width="60" height="10" rx="1" fill="#ffffff"/>
  
  <!-- Summary Items -->
  <rect x="270" y="72" width="45" height="8" rx="1" fill="#6c757d"/>
  <rect x="345" y="72" width="25" height="8" rx="1" fill="#343a40"/>
  
  <rect x="270" y="88" width="35" height="8" rx="1" fill="#6c757d"/>
  <rect x="345" y="88" width="25" height="8" rx="1" fill="#343a40"/>
  
  <rect x="270" y="104" width="50" height="8" rx="1" fill="#6c757d"/>
  <rect x="345" y="104" width="25" height="8" rx="1" fill="#28a745"/>
  
  <!-- Divider -->
  <line x1="270" y1="122" x2="370" y2="122" stroke="#dee2e6" stroke-width="1"/>
  
  <!-- Total -->
  <rect x="270" y="132" width="30" height="12" rx="1" fill="#212529" font-weight="bold"/>
  <rect x="340" y="132" width="30" height="12" rx="1" fill="#28a745"/>
  
  <!-- Coupon -->
  <rect x="270" y="158" width="100" height="24" rx="3" fill="#fff" stroke="#ced4da" stroke-width="1"/>
  <rect x="275" y="164" width="40" height="12" rx="1" fill="#e9ecef"/>
  
  <!-- Checkout Button -->
  <rect x="270" y="192" width="100" height="32" rx="4" fill="#007bff"/>
  <rect x="290" y="203" width="60" height="10" rx="1" fill="#ffffff"/>
  
  <!-- Lock Icon -->
  <circle cx="283" cy="208" r="5" fill="none" stroke="#ffffff" stroke-width="1.5"/>
  
  <!-- Label -->
  <text x="200" y="290" font-family="Arial, sans-serif" font-size="11" fill="#6c757d" text-anchor="middle">Sticky Summary Cart</text>
</svg>
