<svg xmlns="http://www.w3.org/2000/svg" viewBox="0 0 400 300">
  <defs>
    <linearGradient id="bgGrad" x1="0%" y1="0%" x2="100%" y2="100%">
      <stop offset="0%" style="stop-color:#f8f9fa"/>
      <stop offset="100%" style="stop-color:#e9ecef"/>
    </linearGradient>
  </defs>
  
  <!-- Background -->
  <rect width="400" height="300" fill="url(#bgGrad)"/>
  
  <!-- Empty Cart Message Section -->
  <rect x="90" y="15" width="220" height="90" rx="6" fill="#ffffff" stroke="#dee2e6" stroke-width="1"/>
  
  <!-- Cart Icon -->
  <circle cx="200" cy="45" r="18" fill="#f8f9fa"/>
  <path d="M190 42 L193 52 L207 52 L209 44 L195 44" fill="none" stroke="#6c757d" stroke-width="1.5" stroke-linecap="round"/>
  <circle cx="195" cy="56" r="2" fill="#6c757d"/>
  <circle cx="205" cy="56" r="2" fill="#6c757d"/>
  
  <!-- Empty Text -->
  <rect x="145" y="72" width="110" height="10" rx="1" fill="#343a40"/>
  <rect x="160" y="88" width="80" height="6" rx="1" fill="#adb5bd"/>
  
  <!-- Recommended Products Section -->
  <rect x="20" y="120" width="130" height="12" rx="1" fill="#343a40"/>
  
  <!-- Product Cards Row -->
  <rect x="20" y="140" width="85" height="120" rx="6" fill="#ffffff" stroke="#dee2e6" stroke-width="1"/>
  <rect x="30" y="150" width="65" height="50" rx="3" fill="#e9ecef"/>
  <rect x="30" y="208" width="50" height="8" rx="1" fill="#495057"/>
  <rect x="30" y="220" width="35" height="10" rx="1" fill="#28a745"/>
  <rect x="30" y="238" width="65" height="16" rx="2" fill="#007bff"/>
  
  <rect x="115" y="140" width="85" height="120" rx="6" fill="#ffffff" stroke="#dee2e6" stroke-width="1"/>
  <rect x="125" y="150" width="65" height="50" rx="3" fill="#e9ecef"/>
  <rect x="125" y="208" width="50" height="8" rx="1" fill="#495057"/>
  <rect x="125" y="220" width="35" height="10" rx="1" fill="#28a745"/>
  <rect x="125" y="238" width="65" height="16" rx="2" fill="#007bff"/>
  
  <rect x="210" y="140" width="85" height="120" rx="6" fill="#ffffff" stroke="#dee2e6" stroke-width="1"/>
  <rect x="220" y="150" width="65" height="50" rx="3" fill="#e9ecef"/>
  <rect x="220" y="208" width="50" height="8" rx="1" fill="#495057"/>
  <rect x="220" y="220" width="35" height="10" rx="1" fill="#28a745"/>
  <rect x="220" y="238" width="65" height="16" rx="2" fill="#007bff"/>
  
  <rect x="305" y="140" width="85" height="120" rx="6" fill="#ffffff" stroke="#dee2e6" stroke-width="1"/>
  <rect x="315" y="150" width="65" height="50" rx="3" fill="#e9ecef"/>
  <rect x="315" y="208" width="50" height="8" rx="1" fill="#495057"/>
  <rect x="315" y="220" width="35" height="10" rx="1" fill="#28a745"/>
  <rect x="315" y="238" width="65" height="16" rx="2" fill="#007bff"/>
  
  <!-- Label -->
  <text x="200" y="290" font-family="Arial, sans-serif" font-size="11" fill="#6c757d" text-anchor="middle">Empty Cart with Products</text>
</svg>
