<svg xmlns="http://www.w3.org/2000/svg" viewBox="0 0 400 300">
  <defs>
    <linearGradient id="bgGrad" x1="0%" y1="0%" x2="100%" y2="100%">
      <stop offset="0%" style="stop-color:#f8f9fa"/>
      <stop offset="100%" style="stop-color:#e9ecef"/>
    </linearGradient>
  </defs>
  
  <!-- Background -->
  <rect width="400" height="300" fill="url(#bgGrad)"/>
  
  <!-- User Avatar & Name Header -->
  <circle cx="200" cy="35" r="22" fill="#007bff"/>
  <rect x="155" y="62" width="90" height="12" rx="2" fill="#212529"/>
  <rect x="165" y="78" width="70" height="8" rx="1" fill="#6c757d"/>
  
  <!-- Dashboard Grid -->
  <!-- Row 1 -->
  <rect x="30" y="100" width="105" height="80" rx="6" fill="#ffffff" stroke="#dee2e6" stroke-width="1"/>
  <circle cx="82" cy="125" r="12" fill="#007bff" opacity="0.1"/>
  <rect x="57" y="145" width="50" height="8" rx="1" fill="#495057"/>
  <rect x="67" y="158" width="30" height="16" rx="2" fill="#007bff"/>
  
  <rect x="147" y="100" width="105" height="80" rx="6" fill="#ffffff" stroke="#dee2e6" stroke-width="1"/>
  <circle cx="199" cy="125" r="12" fill="#28a745" opacity="0.1"/>
  <rect x="174" y="145" width="50" height="8" rx="1" fill="#495057"/>
  <rect x="184" y="158" width="30" height="16" rx="2" fill="#28a745"/>
  
  <rect x="265" y="100" width="105" height="80" rx="6" fill="#ffffff" stroke="#dee2e6" stroke-width="1"/>
  <circle cx="317" cy="125" r="12" fill="#ffc107" opacity="0.1"/>
  <rect x="292" y="145" width="50" height="8" rx="1" fill="#495057"/>
  <rect x="302" y="158" width="30" height="16" rx="2" fill="#ffc107"/>
  
  <!-- Row 2 -->
  <rect x="30" y="192" width="170" height="55" rx="6" fill="#ffffff" stroke="#dee2e6" stroke-width="1"/>
  <rect x="45" y="205" width="80" height="10" rx="1" fill="#343a40"/>
  <rect x="45" y="222" width="100" height="6" rx="1" fill="#adb5bd"/>
  <rect x="45" y="232" width="60" height="6" rx="1" fill="#007bff"/>
  
  <rect x="212" y="192" width="158" height="55" rx="6" fill="#ffffff" stroke="#dee2e6" stroke-width="1"/>
  <rect x="227" y="205" width="80" height="10" rx="1" fill="#343a40"/>
  <rect x="227" y="222" width="100" height="6" rx="1" fill="#adb5bd"/>
  <rect x="227" y="232" width="60" height="6" rx="1" fill="#007bff"/>
  
  <!-- Label -->
  <text x="200" y="290" font-family="Arial, sans-serif" font-size="11" fill="#6c757d" text-anchor="middle">Dashboard My Account</text>
</svg>
