<svg xmlns="http://www.w3.org/2000/svg" viewBox="0 0 400 300">
  <defs>
    <linearGradient id="bgGrad" x1="0%" y1="0%" x2="100%" y2="100%">
      <stop offset="0%" style="stop-color:#f8f9fa"/>
      <stop offset="100%" style="stop-color:#e9ecef"/>
    </linearGradient>
  </defs>
  
  <!-- Background -->
  <rect width="400" height="300" fill="url(#bgGrad)"/>
  
  <!-- Order Confirmation Banner -->
  <rect x="30" y="10" width="340" height="55" rx="6" fill="#28a745"/>
  <circle cx="60" cy="37" r="15" fill="#ffffff" opacity="0.2"/>
  <circle cx="60" cy="37" r="10" fill="#ffffff"/>
  <path d="M55 37 L58 40 L66 32" fill="none" stroke="#28a745" stroke-width="2" stroke-linecap="round"/>
  <rect x="85" y="28" width="120" height="12" rx="1" fill="#ffffff"/>
  <rect x="85" y="44" width="180" height="6" rx="1" fill="#ffffff" opacity="0.7"/>
  
  <!-- Order Details Compact -->
  <rect x="30" y="72" width="160" height="60" rx="6" fill="#ffffff" stroke="#dee2e6" stroke-width="1"/>
  <rect x="42" y="82" width="50" height="8" rx="1" fill="#343a40"/>
  <rect x="42" y="96" width="70" height="6" rx="1" fill="#6c757d"/>
  <rect x="42" y="108" width="90" height="6" rx="1" fill="#adb5bd"/>
  <rect x="42" y="120" width="30" height="6" rx="1" fill="#28a745"/>
  
  <!-- Newsletter Signup -->
  <rect x="200" y="72" width="170" height="60" rx="6" fill="#007bff" opacity="0.1" stroke="#007bff" stroke-width="1"/>
  <rect x="212" y="82" width="100" height="10" rx="1" fill="#007bff"/>
  <rect x="212" y="98" width="145" height="22" rx="3" fill="#ffffff" stroke="#ced4da" stroke-width="1"/>
  <rect x="300" y="100" width="52" height="18" rx="2" fill="#007bff"/>
  
  <!-- Upsell Section -->
  <rect x="30" y="142" width="150" height="12" rx="1" fill="#343a40"/>
  
  <!-- Upsell Products -->
  <rect x="30" y="160" width="110" height="100" rx="6" fill="#ffffff" stroke="#dee2e6" stroke-width="1"/>
  <rect x="38" y="168" width="94" height="45" rx="3" fill="#e9ecef"/>
  <rect x="38" y="220" width="60" height="8" rx="1" fill="#495057"/>
  <rect x="38" y="232" width="35" height="8" rx="1" fill="#28a745"/>
  <rect x="38" y="246" width="94" height="8" rx="2" fill="#007bff"/>
  
  <rect x="150" y="160" width="110" height="100" rx="6" fill="#ffffff" stroke="#dee2e6" stroke-width="1"/>
  <rect x="158" y="168" width="94" height="45" rx="3" fill="#e9ecef"/>
  <rect x="158" y="220" width="60" height="8" rx="1" fill="#495057"/>
  <rect x="158" y="232" width="35" height="8" rx="1" fill="#28a745"/>
  <rect x="158" y="246" width="94" height="8" rx="2" fill="#007bff"/>
  
  <rect x="270" y="160" width="110" height="100" rx="6" fill="#ffffff" stroke="#dee2e6" stroke-width="1"/>
  <rect x="278" y="168" width="94" height="45" rx="3" fill="#e9ecef"/>
  <rect x="278" y="220" width="60" height="8" rx="1" fill="#495057"/>
  <rect x="278" y="232" width="35" height="8" rx="1" fill="#28a745"/>
  <rect x="278" y="246" width="94" height="8" rx="2" fill="#007bff"/>
  
  <!-- Label -->
  <text x="200" y="290" font-family="Arial, sans-serif" font-size="11" fill="#6c757d" text-anchor="middle">Promotional Thank You</text>
</svg>
